<svg id="Capa_1" data-name="Capa 1" xmlns="http://www.w3.org/2000/svg" xmlns:xlink="http://www.w3.org/1999/xlink" viewBox="0 0 129 129"><defs><style>.cls-1{fill:none;}.cls-2{clip-path:url(#clip-path);}.cls-3{opacity:0.04;}.cls-4{fill:#fff;}.cls-5{fill:#1a1a1a;}</style><clipPath id="clip-path"><rect class="cls-1" x="918" y="-162" width="1920" height="890"/></clipPath></defs><title>icono finder</title><g class="cls-2"><g class="cls-3"><path class="cls-4" d="M2718.92,1094.42c20.14-21.26,91.8-81.79,91.8-81.79S2759,955,2757.31,929.17c-10-156.9-63.43-282.08-312.12-302.11L2246,619.79l1.14-3.92c7.54-9.3,13.92-20.88,19-34.61,8.43-22.68,10.87-47.59,10.9-68.66h0a279.44,279.44,0,0,0-4.19-49.39l-.27-1.26c-3.89-16.14-19.76-45-54.55-51-26.81-4.57-49.73,1.9-61.66,18.36l-99.22-13L1998.15-49.56,1982-60.1c-2.44-1.59-61.21-39.45-180.15-76.62-107.51-33.6-288.64-73.65-541-73.65-242.78,0-419.3,40.09-524.63,73.72-116.41,37.17-175,75-177.39,76.57L543.31-50,521.06,91.18c-10.76-7.38-28.56-15.86-54.47-17C421.41,72.08,362.44,147,343.95,309.49,329.9,433,350,493.32,371,522.27A96.27,96.27,0,0,0,359.21,518a85.4,85.4,0,0,0-28.2-3.43,67.2,67.2,0,0,0-18.7,3.56l2.77-18.4-81.44,4.12-2.38,15.8a56.41,56.41,0,0,0-6.69,1.41l-60.48,3.07-.62,4.19a72.62,72.62,0,0,0-28.3-3.81,78.12,78.12,0,0,0-34.81,9.65,68.83,68.83,0,0,0-6.5,4.21,51.3,51.3,0,0,0-5-3.35,49.38,49.38,0,0,0-16.56-6l0-.19-.89,0a53.94,53.94,0,0,0-21.52,1.09l-59.25,3-.28,1.9a83.69,83.69,0,0,0-22-1.86,64,64,0,0,0-26.47,6.88A54.8,54.8,0,0,0-67,545.55a60.89,60.89,0,0,0-6.84-3.48h0a70.51,70.51,0,0,0-31.76-5.26,67.64,67.64,0,0,0-33.66,10.55,63.67,63.67,0,0,0-23.14,26.16A70,70,0,0,0-169.07,608a56.35,56.35,0,0,0,10.59,30.84,54.66,54.66,0,0,0,9.75,10.27l-12.73.86L-162,945.86-225.39,1006l65.1,66.76,3.85,401.29L134,1377.2l328.63-86.28a191.75,191.75,0,0,0-8.39,41.55c-1.46,17.35.44,32.6,5.81,46.62,4.55,11.89,10.81,21.31,19.11,28.81,15,13.53,33.37,20.76,56.16,22.1,16.14.95,32.89-1.68,51.18-8,16.9-5.87,34-14.43,52-26a863.77,863.77,0,0,0,96.36,86.92q33.63,26.16,71.1,50.48-5.78,7.43-11.17,14.74A214,214,0,0,0,778,1573.76a88.77,88.77,0,0,0-8.24,20.1c-3.32,13.2,2.83,24.67,15.68,29.22a34.15,34.15,0,0,0,11.45,2,35,35,0,0,0,4.93-.35,58.64,58.64,0,0,0,17.31-5.19l2.5-1.21c7.92-3.83,16.12-7.79,24.08-12.06,14.26-7.63,28.17-15.84,42-24.39q40,21.67,83.21,41.34c150.9,68.67,276.41,94.28,281.68,95.34l4.06.81h17.85l4.06-.81c5.27-1.06,130.78-26.66,281.68-95.34,89-40.52,168.49-87.75,236.13-140.36q10.57-8.22,20.75-16.63c6.95-.2,14.14-.67,21.64-1.44a305.68,305.68,0,0,0,71.91-16.55,383.36,383.36,0,0,0,84.71-43.11,273,273,0,0,0,38.1-30.23c14.32-13.82,27.66-30.7,40.78-51.61a272.87,272.87,0,0,0,22.27-43.15l72.05,11.94,247,65.1,373.88,128.52-122.35-321.17S2702.55,1111.68,2718.92,1094.42ZM509.56,1367.36a51.6,51.6,0,0,1-4.46-18.77c-.86-14.39,1.57-29.67,7.64-48.1,2.7-8.2,6-16.56,9.84-25.32l20-5.25a682.71,682.71,0,0,0,64.33,90.61,216.31,216.31,0,0,1-30.55,16.35c-11.51,4.95-22.07,7.7-32.28,8.43a41.42,41.42,0,0,1-19.19-2.69C518,1379.76,513,1374.77,509.56,1367.36Zm1483.19-104.42,52.85,8.75a253.17,253.17,0,0,1-25.11,43.24c-7.73,10.89-18.34,24.85-31.93,36.19a316.53,316.53,0,0,1-110.22,59.64C1924.47,1364.64,1962.76,1315.18,1992.75,1262.94Z"/><path class="cls-4" d="M1277.87,1752.75h-24.48l-7.31-1.47c-5.41-1.08-134.53-27.41-288.94-97.68-23.21-10.56-46.12-21.75-68.33-33.36-9.75,5.77-18.68,10.81-27.35,15.45s-17.08,8.7-25.3,12.67l-2.53,1.22a91.91,91.91,0,0,1-27.11,8.17,67.8,67.8,0,0,1-32.21-3.21c-28.86-10.22-44.38-39.16-36.91-68.84a120.27,120.27,0,0,1,11.2-27.73c3.13-5.84,6.48-11.26,9.87-16.34-15.29-10.64-30-21.48-44.12-32.43a917,917,0,0,1-81.45-71.29,251.89,251.89,0,0,1-35.45,15.58c-22.51,7.82-43.48,11-64.09,9.83-30.24-1.78-56-12.09-76.56-30.64-12.32-11.11-21.45-24.74-27.93-41.66s-9.22-34.81-8.34-54.56l-277,72.73-332.89,111-4.16-433.74L-272.93,1005l77.61-73.52.5-289.23a91.38,91.38,0,0,1-7.59-32.6,103,103,0,0,1,10-50.69,96.58,96.58,0,0,1,35.1-39.67,100.6,100.6,0,0,1,50-15.82,106.17,106.17,0,0,1,37.94,4.67,98.12,98.12,0,0,1,36-8.56,114,114,0,0,1,15.7.29l62.84-3.19a87.67,87.67,0,0,1,27.48-1.39l38.73-2-.15,1a119.56,119.56,0,0,1,22.2-3.18,114.87,114.87,0,0,1,16.07.27l52.59-2.67,2.54-16.87,108.46-5.49c-8.82-43.1-9.63-96.8-2.37-160.67,9-79.08,28.25-145.63,55.67-192.48,38.23-65.32,80.1-73.45,101.65-72.44a153,153,0,0,1,26.55,3.5l18-114.09L540.57-88c2.58-1.69,64.77-41.87,185.49-80.42,107.59-34.35,287.71-75.31,534.79-75.31,256.56,0,441.21,40.88,550.94,75.17,121.2,37.88,181.9,76.27,188.42,80.52l29.11,19,57.76,455.7,57.56,7.52c20.07-15.36,48.2-21.32,79.05-16.06,45.42,7.74,73.61,43.77,81.39,76l.59,2.7a313.54,313.54,0,0,1,4.8,55.82c0,28.2-3.87,53.63-11.37,75.67l148,5.41.73.06c125.05,10.07,212.8,46.48,268.25,111.3,45,52.58,68,120.84,74.46,221.24,2.46,9.91,24.11,40.74,45,64l23,25.6-26.28,22.2c-19.54,16.51-73.64,62.92-89.11,79.25h0c-8.27,8.73-25.32,32.36-38.58,51.54l141.53,371.52L2406,1389.13l-244.34-64.39-45.41-7.52c-4.08,7.89-8.61,15.79-13.64,23.8-14.57,23.22-29.58,42.15-45.86,57.88a305.76,305.76,0,0,1-42.71,34,416.71,416.71,0,0,1-92.12,46.83,338.58,338.58,0,0,1-79.68,18.3c-4.2.43-8.36.78-12.45,1-4.32,3.49-8.62,6.89-12.83,10.16-69.69,54.21-151.38,102.79-242.8,144.39-154.42,70.27-283.53,96.6-288.95,97.68ZM1260,1686h11.22l.81-.16c5.12-1,126.92-25.87,274.42-93,86.68-39.44,163.88-85.31,229.46-136.32,6.52-5.07,13.25-10.47,20-16l8.84-7.29,4.08-.11,45.89-45.9c43.94-43.95,80.64-91.34,109.07-140.85l11.54-20.09,100.26,16.61h0l100,16.57,249.72,65.81,1.16.4L2733,1430.95l-103.11-270.67,9.6-14.33c3.78-5.65,37.46-55.72,55.25-74.49h0c13.5-14.24,46.06-42.8,69.34-62.85-2-2.59-4.08-5.3-6.16-8.08-28.55-38.31-33.1-57.12-33.87-69.22-5.45-85.42-23.53-141.8-58.61-182.81-43.31-50.62-116-79.44-222.17-88.1l-241.13-8.81L2217,600.1l4.26-5.25c5.26-6.48,9.85-15,13.66-25.21,5.73-15.42,8.78-35.16,8.81-57.09v-.46a252.09,252.09,0,0,0-3.52-42.22l-.06-.26c-.56-2-6.56-22.12-27.66-25.72-15.6-2.65-25.82.62-29,5L2171.81,465l-144.47-18.87L1967-30l-3.24-2.11c-.56-.36-57.32-36.92-171.87-72.72C1686.58-137.77,1509-177,1260.85-177c-238.48,0-411.41,39.23-514.48,72.14C634.21-69,577.64-32.51,577.08-32.15l-3.11,2L545.79,148.63,502.17,118.7c-6.78-4.65-18.72-10.38-37.11-11.21h-.38c-16.88,0-69.81,49.63-87.57,205.78-13.73,120.67,7.21,170.5,20.91,189.45l71.85,99.42-112.32-49.3a63.4,63.4,0,0,0-7.68-2.81,52.12,52.12,0,0,0-17.19-2.14,34,34,0,0,0-9.41,1.75l-52.18,18.13L276,535.11l-13.41.68-2,13.19-24.39,3.66a22.87,22.87,0,0,0-2.73.56l-3.55,1L193.13,556l-2.55,17.35-38.33-13.68a39.59,39.59,0,0,0-15.36-1.91,45.2,45.2,0,0,0-20.13,5.38,35.47,35.47,0,0,0-3.35,2.18L93.47,579.81,73.79,565a18.61,18.61,0,0,0-1.74-1.18,16,16,0,0,0-5.44-2l-.31,0a20.18,20.18,0,0,0-4.07-.19,19.6,19.6,0,0,0-4,.6L55,563l-35.31,1.79L18.19,575l-34.88-7.55a50.57,50.57,0,0,0-13.23-1.15,30.94,30.94,0,0,0-12.76,3.15,21.7,21.7,0,0,0-3.5,2.25l-18,14.28L-83.9,574.31a27.72,27.72,0,0,0-3.1-1.59,37.68,37.68,0,0,0-16.85-2.58,34.25,34.25,0,0,0-17.3,5.28,30.33,30.33,0,0,0-11.17,12.65,36.49,36.49,0,0,0-3.43,18.21,23.24,23.24,0,0,0,4.26,12.91,21.23,21.23,0,0,0,3.85,4l65.56,53.49-66.06,4.45-.48,279.1-49.24,46.65L-127,1059l3.54,368.84,248-82.65,1-.28,433-113.67,12.83,21.69a652.17,652.17,0,0,0,61.19,86.18l14.4,17.21L662.69,1373a833.59,833.59,0,0,0,92.64,83.55c21.4,16.64,44.54,33.08,68.8,48.84l30.45,19.8-22.29,28.68c-3.67,4.72-7.25,9.45-10.65,14.06a197.42,197.42,0,0,0-13.15,19.7c7.16-3.46,14.54-7,21.47-10.76,12.1-6.47,24.9-13.9,40.29-23.38l16.43-10.12,17,9.18c26.07,14.11,53.38,27.68,81.15,40.32,147.49,67.12,269.3,92,274.41,93ZM539.36,1352.07a20,20,0,0,0,2.31,0,57.29,57.29,0,0,0,13.71-2.84q-8-10.67-15.45-21.52a74.36,74.36,0,0,0-1.52,18.94A21.24,21.24,0,0,0,539.36,1352.07Z"/></g></g><path class="cls-5" d="M105.63,64.51l0-.05a2.84,2.84,0,0,0-2.42-1.89,2.5,2.5,0,0,0-2.46,1l-11.48-.48a2.65,2.65,0,0,0-1.66-1.2,2.7,2.7,0,0,0-2,.07l-13.73-.75a5.22,5.22,0,0,0-.38-1,3.33,3.33,0,0,0-2.8-1.86h-.17a3.24,3.24,0,0,0-1.76.49l-23.46-2.2A2.31,2.31,0,0,0,42,55.93c-.69-.13-2.39-.2-2.73-.22h-.32l-.29.15a1.55,1.55,0,0,0-.21.14l-5.94-.37a4.22,4.22,0,0,0-2.36-.54c-1.86.08-4,3.36-4.18,10.09-.13,5.23,1,7.62,1.94,8.7a1.89,1.89,0,0,0,1,.44,82.39,82.39,0,0,0,9.18-.13,4.25,4.25,0,0,0,3.62.28c1.45-.41,15.42-.76,24.08-.89a5,5,0,0,0,3.68-.17,4.18,4.18,0,0,0,1.87-2.07H84.74A2.92,2.92,0,0,0,86.5,72a2.67,2.67,0,0,0,2-1.07l12.21.09a4.28,4.28,0,0,0,1.27.87,2.5,2.5,0,0,0,1.19.2,2.44,2.44,0,0,0,1.57-.74,4.47,4.47,0,0,0,1-1.94A10.32,10.32,0,0,0,105.63,64.51Z"/><path class="cls-5" d="M64.5,125A60.5,60.5,0,1,1,125,64.5,60.57,60.57,0,0,1,64.5,125Zm0-114.9a54.4,54.4,0,1,0,54.4,54.4A54.46,54.46,0,0,0,64.5,10.1Z"/></svg>